<svg width="302" height="51" viewBox="0 0 302 51" fill="none" xmlns="http://www.w3.org/2000/svg">
<path d="M10.8 39.56C9.22667 39.56 7.74667 39.1733 6.36 38.4C5 37.6 3.90667 36.44 3.08 34.92C2.25333 33.4 1.84 31.56 1.84 29.4V28.76C1.84 26.6 2.25333 24.76 3.08 23.24C3.90667 21.72 5 20.5733 6.36 19.8C7.72 19 9.2 18.6 10.8 18.6C12 18.6 13 18.7467 13.8 19.04C14.6267 19.3067 15.2933 19.6533 15.8 20.08C16.3067 20.5067 16.6933 20.96 16.96 21.44H17.68V11H22.72V39H17.76V36.6H17.04C16.5867 37.3467 15.88 38.0267 14.92 38.64C13.9867 39.2533 12.6133 39.56 10.8 39.56ZM12.32 35.16C13.8667 35.16 15.16 34.6667 16.2 33.68C17.24 32.6667 17.76 31.2 17.76 29.28V28.88C17.76 26.96 17.24 25.5067 16.2 24.52C15.1867 23.5067 13.8933 23 12.32 23C10.7733 23 9.48 23.5067 8.44 24.52C7.4 25.5067 6.88 26.96 6.88 28.88V29.28C6.88 31.2 7.4 32.6667 8.44 33.68C9.48 34.6667 10.7733 35.16 12.32 35.16ZM37.7478 39.56C35.7745 39.56 34.0011 39.16 32.4278 38.36C30.8545 37.56 29.6145 36.4 28.7078 34.88C27.8011 33.36 27.3478 31.5333 27.3478 29.4V28.76C27.3478 26.6267 27.8011 24.8 28.7078 23.28C29.6145 21.76 30.8545 20.6 32.4278 19.8C34.0011 19 35.7745 18.6 37.7478 18.6C39.7211 18.6 41.4945 19 43.0678 19.8C44.6411 20.6 45.8811 21.76 46.7878 23.28C47.6945 24.8 48.1478 26.6267 48.1478 28.76V29.4C48.1478 31.5333 47.6945 33.36 46.7878 34.88C45.8811 36.4 44.6411 37.56 43.0678 38.36C41.4945 39.16 39.7211 39.56 37.7478 39.56ZM37.7478 35.08C39.2945 35.08 40.5745 34.5867 41.5878 33.6C42.6011 32.5867 43.1078 31.1467 43.1078 29.28V28.88C43.1078 27.0133 42.6011 25.5867 41.5878 24.6C40.6011 23.5867 39.3211 23.08 37.7478 23.08C36.2011 23.08 34.9211 23.5867 33.9078 24.6C32.8945 25.5867 32.3878 27.0133 32.3878 28.88V29.28C32.3878 31.1467 32.8945 32.5867 33.9078 33.6C34.9211 34.5867 36.2011 35.08 37.7478 35.08ZM61.9963 29.16V28.52C61.9963 26.44 62.4096 24.6667 63.2363 23.2C64.0629 21.7067 65.1563 20.5733 66.5163 19.8C67.9029 19 69.4096 18.6 71.0363 18.6C72.8496 18.6 74.2229 18.92 75.1563 19.56C76.0896 20.2 76.7696 20.8667 77.1963 21.56H77.9163V19.16H82.8763V42.52C82.8763 43.88 82.4763 44.96 81.6763 45.76C80.8763 46.5867 79.8096 47 78.4763 47H65.1963V42.6H76.7163C77.4629 42.6 77.8363 42.2 77.8363 41.4V36.24H77.1163C76.8496 36.6667 76.4763 37.1067 75.9963 37.56C75.5163 37.9867 74.8763 38.3467 74.0763 38.64C73.2763 38.9333 72.2629 39.08 71.0363 39.08C69.4096 39.08 67.9029 38.6933 66.5163 37.92C65.1563 37.12 64.0629 35.9867 63.2363 34.52C62.4096 33.0267 61.9963 31.24 61.9963 29.16ZM72.4763 34.68C74.0229 34.68 75.3163 34.1867 76.3563 33.2C77.3963 32.2133 77.9163 30.8267 77.9163 29.04V28.64C77.9163 26.8267 77.3963 25.44 76.3563 24.48C75.3429 23.4933 74.0496 23 72.4763 23C70.9296 23 69.6363 23.4933 68.5963 24.48C67.5563 25.44 67.0363 26.8267 67.0363 28.64V29.04C67.0363 30.8267 67.5563 32.2133 68.5963 33.2C69.6363 34.1867 70.9296 34.68 72.4763 34.68ZM97.9041 39.56C95.9307 39.56 94.1574 39.16 92.5841 38.36C91.0107 37.56 89.7707 36.4 88.8641 34.88C87.9574 33.36 87.5041 31.5333 87.5041 29.4V28.76C87.5041 26.6267 87.9574 24.8 88.8641 23.28C89.7707 21.76 91.0107 20.6 92.5841 19.8C94.1574 19 95.9307 18.6 97.9041 18.6C99.8774 18.6 101.651 19 103.224 19.8C104.797 20.6 106.037 21.76 106.944 23.28C107.851 24.8 108.304 26.6267 108.304 28.76V29.4C108.304 31.5333 107.851 33.36 106.944 34.88C106.037 36.4 104.797 37.56 103.224 38.36C101.651 39.16 99.8774 39.56 97.9041 39.56ZM97.9041 35.08C99.4507 35.08 100.731 34.5867 101.744 33.6C102.757 32.5867 103.264 31.1467 103.264 29.28V28.88C103.264 27.0133 102.757 25.5867 101.744 24.6C100.757 23.5867 99.4774 23.08 97.9041 23.08C96.3574 23.08 95.0774 23.5867 94.0641 24.6C93.0507 25.5867 92.5441 27.0133 92.5441 28.88V29.28C92.5441 31.1467 93.0507 32.5867 94.0641 33.6C95.0774 34.5867 96.3574 35.08 97.9041 35.08ZM122.396 39.56C120.423 39.56 118.65 39.16 117.076 38.36C115.503 37.56 114.263 36.4 113.356 34.88C112.45 33.36 111.996 31.5333 111.996 29.4V28.76C111.996 26.6267 112.45 24.8 113.356 23.28C114.263 21.76 115.503 20.6 117.076 19.8C118.65 19 120.423 18.6 122.396 18.6C124.37 18.6 126.143 19 127.716 19.8C129.29 20.6 130.53 21.76 131.436 23.28C132.343 24.8 132.796 26.6267 132.796 28.76V29.4C132.796 31.5333 132.343 33.36 131.436 34.88C130.53 36.4 129.29 37.56 127.716 38.36C126.143 39.16 124.37 39.56 122.396 39.56ZM122.396 35.08C123.943 35.08 125.223 34.5867 126.236 33.6C127.25 32.5867 127.756 31.1467 127.756 29.28V28.88C127.756 27.0133 127.25 25.5867 126.236 24.6C125.25 23.5867 123.97 23.08 122.396 23.08C120.85 23.08 119.57 23.5867 118.556 24.6C117.543 25.5867 117.036 27.0133 117.036 28.88V29.28C117.036 31.1467 117.543 32.5867 118.556 33.6C119.57 34.5867 120.85 35.08 122.396 35.08ZM145.448 39.56C143.875 39.56 142.395 39.1733 141.008 38.4C139.648 37.6 138.555 36.44 137.728 34.92C136.902 33.4 136.488 31.56 136.488 29.4V28.76C136.488 26.6 136.902 24.76 137.728 23.24C138.555 21.72 139.648 20.5733 141.008 19.8C142.368 19 143.848 18.6 145.448 18.6C146.648 18.6 147.648 18.7467 148.448 19.04C149.275 19.3067 149.942 19.6533 150.448 20.08C150.955 20.5067 151.342 20.96 151.608 21.44H152.328V11H157.368V39H152.408V36.6H151.688C151.235 37.3467 150.528 38.0267 149.568 38.64C148.635 39.2533 147.262 39.56 145.448 39.56ZM146.968 35.16C148.515 35.16 149.808 34.6667 150.848 33.68C151.888 32.6667 152.408 31.2 152.408 29.28V28.88C152.408 26.96 151.888 25.5067 150.848 24.52C149.835 23.5067 148.542 23 146.968 23C145.422 23 144.128 23.5067 143.088 24.52C142.048 25.5067 141.528 26.96 141.528 28.88V29.28C141.528 31.2 142.048 32.6667 143.088 33.68C144.128 34.6667 145.422 35.16 146.968 35.16ZM180.713 39C179.406 39 178.339 38.6 177.513 37.8C176.713 36.9733 176.313 35.88 176.313 34.52V23.32H171.353V19.16H176.313V13H181.353V19.16H186.793V23.32H181.353V33.64C181.353 34.44 181.726 34.84 182.473 34.84H186.313V39H180.713ZM191.355 39V11H196.395V21.6H197.115C197.328 21.1733 197.661 20.7467 198.115 20.32C198.568 19.8933 199.168 19.5467 199.915 19.28C200.688 18.9867 201.661 18.84 202.835 18.84C204.381 18.84 205.728 19.2 206.875 19.92C208.048 20.6133 208.955 21.5867 209.595 22.84C210.235 24.0667 210.555 25.5067 210.555 27.16V39H205.515V27.56C205.515 26.0667 205.141 24.9467 204.395 24.2C203.675 23.4533 202.635 23.08 201.275 23.08C199.728 23.08 198.528 23.6 197.675 24.64C196.821 25.6533 196.395 27.08 196.395 28.92V39H191.355ZM216.003 39V19.16H221.043V39H216.003ZM218.523 16.84C217.616 16.84 216.843 16.5467 216.203 15.96C215.59 15.3733 215.283 14.6 215.283 13.64C215.283 12.68 215.59 11.9067 216.203 11.32C216.843 10.7333 217.616 10.44 218.523 10.44C219.456 10.44 220.23 10.7333 220.843 11.32C221.456 11.9067 221.763 12.68 221.763 13.64C221.763 14.6 221.456 15.3733 220.843 15.96C220.23 16.5467 219.456 16.84 218.523 16.84ZM226.628 39V19.16H231.588V21.76H232.308C232.628 21.0667 233.228 20.4133 234.108 19.8C234.988 19.16 236.321 18.84 238.108 18.84C239.655 18.84 241.001 19.2 242.148 19.92C243.321 20.6133 244.228 21.5867 244.868 22.84C245.508 24.0667 245.828 25.5067 245.828 27.16V39H240.788V27.56C240.788 26.0667 240.415 24.9467 239.668 24.2C238.948 23.4533 237.908 23.08 236.548 23.08C235.001 23.08 233.801 23.6 232.948 24.64C232.095 25.6533 231.668 27.08 231.668 28.92V39H226.628ZM250.317 29.16V28.52C250.317 26.44 250.73 24.6667 251.557 23.2C252.383 21.7067 253.477 20.5733 254.837 19.8C256.223 19 257.73 18.6 259.357 18.6C261.17 18.6 262.543 18.92 263.477 19.56C264.41 20.2 265.09 20.8667 265.517 21.56H266.237V19.16H271.197V42.52C271.197 43.88 270.797 44.96 269.997 45.76C269.197 46.5867 268.13 47 266.797 47H253.517V42.6H265.037C265.783 42.6 266.157 42.2 266.157 41.4V36.24H265.437C265.17 36.6667 264.797 37.1067 264.317 37.56C263.837 37.9867 263.197 38.3467 262.397 38.64C261.597 38.9333 260.583 39.08 259.357 39.08C257.73 39.08 256.223 38.6933 254.837 37.92C253.477 37.12 252.383 35.9867 251.557 34.52C250.73 33.0267 250.317 31.24 250.317 29.16ZM260.797 34.68C262.343 34.68 263.637 34.1867 264.677 33.2C265.717 32.2133 266.237 30.8267 266.237 29.04V28.64C266.237 26.8267 265.717 25.44 264.677 24.48C263.663 23.4933 262.37 23 260.797 23C259.25 23 257.957 23.4933 256.917 24.48C255.877 25.44 255.357 26.8267 255.357 28.64V29.04C255.357 30.8267 255.877 32.2133 256.917 33.2C257.957 34.1867 259.25 34.68 260.797 34.68ZM285.024 39.56C282.438 39.56 280.318 39 278.664 37.88C277.011 36.76 276.011 35.16 275.664 33.08L280.304 31.88C280.491 32.8133 280.798 33.5467 281.224 34.08C281.678 34.6133 282.224 35 282.864 35.24C283.531 35.4533 284.251 35.56 285.024 35.56C286.198 35.56 287.064 35.36 287.624 34.96C288.184 34.5333 288.464 34.0133 288.464 33.4C288.464 32.7867 288.198 32.32 287.664 32C287.131 31.6533 286.278 31.3733 285.104 31.16L283.984 30.96C282.598 30.6933 281.331 30.3333 280.184 29.88C279.038 29.4 278.118 28.7467 277.424 27.92C276.731 27.0933 276.384 26.0267 276.384 24.72C276.384 22.7467 277.104 21.24 278.544 20.2C279.984 19.1333 281.878 18.6 284.224 18.6C286.438 18.6 288.278 19.0933 289.744 20.08C291.211 21.0667 292.171 22.36 292.624 23.96L287.944 25.4C287.731 24.3867 287.291 23.6667 286.624 23.24C285.984 22.8133 285.184 22.6 284.224 22.6C283.264 22.6 282.531 22.7733 282.024 23.12C281.518 23.44 281.264 23.8933 281.264 24.48C281.264 25.12 281.531 25.6 282.064 25.92C282.598 26.2133 283.318 26.44 284.224 26.6L285.344 26.8C286.838 27.0667 288.184 27.4267 289.384 27.88C290.611 28.3067 291.571 28.9333 292.264 29.76C292.984 30.56 293.344 31.6533 293.344 33.04C293.344 35.12 292.584 36.7333 291.064 37.88C289.571 39 287.558 39.56 285.024 39.56Z" fill="black"/>
<path d="M298 16.56C296.907 16.56 295.987 16.2133 295.24 15.52C294.52 14.8 294.16 13.88 294.16 12.76C294.16 11.64 294.52 10.7333 295.24 10.04C295.987 9.31999 296.907 8.95999 298 8.95999C299.067 8.95999 299.96 9.31999 300.68 10.04C301.4 10.7333 301.76 11.64 301.76 12.76C301.76 13.88 301.4 14.8 300.68 15.52C299.96 16.2133 299.067 16.56 298 16.56Z" fill="black"/>
</svg>
