<svg width="178" height="30" viewBox="0 0 178 30" fill="none" xmlns="http://www.w3.org/2000/svg">
<path d="M6.36553 23.2706C5.43821 23.2706 4.56589 23.0431 3.74858 22.5882C2.94699 22.1176 2.30258 21.4353 1.81533 20.5412C1.32809 19.6471 1.08447 18.5647 1.08447 17.2941V16.9176C1.08447 15.6471 1.32809 14.5647 1.81533 13.6706C2.30258 12.7765 2.94699 12.1019 3.74858 11.6471C4.55017 11.1765 5.42249 10.9412 6.36553 10.9412C7.07282 10.9412 7.66222 11.0275 8.13374 11.2C8.621 11.3569 9.0139 11.5608 9.31255 11.8118C9.6112 12.0628 9.83907 12.3294 9.99626 12.6118H10.4206V6.47059H13.3912V22.9412H10.4678V21.5294H10.0434C9.77624 21.9686 9.3597 22.3686 8.79388 22.7294C8.24379 23.0902 7.4343 23.2706 6.36553 23.2706ZM7.26143 20.6824C8.17306 20.6824 8.93533 20.3922 9.54831 19.8118C10.1613 19.2157 10.4678 18.3529 10.4678 17.2235V16.9882C10.4678 15.8588 10.1613 15.0039 9.54831 14.4235C8.95107 13.8275 8.18874 13.5294 7.26143 13.5294C6.34979 13.5294 5.58752 13.8275 4.97454 14.4235C4.36156 15.0039 4.05507 15.8588 4.05507 16.9882V17.2235C4.05507 18.3529 4.36156 19.2157 4.97454 19.8118C5.58752 20.3922 6.34979 20.6824 7.26143 20.6824ZM22.2487 23.2706C21.0856 23.2706 20.0404 23.0353 19.113 22.5647C18.1857 22.0941 17.4549 21.4118 16.9205 20.5176C16.386 19.6235 16.1189 18.549 16.1189 17.2941V16.9176C16.1189 15.6628 16.386 14.5882 16.9205 13.6941C17.4549 12.8 18.1857 12.1176 19.113 11.6471C20.0404 11.1765 21.0856 10.9412 22.2487 10.9412C23.4117 10.9412 24.457 11.1765 25.3843 11.6471C26.3116 12.1176 27.0425 12.8 27.5769 13.6941C28.1113 14.5882 28.3785 15.6628 28.3785 16.9176V17.2941C28.3785 18.549 28.1113 19.6235 27.5769 20.5176C27.0425 21.4118 26.3116 22.0941 25.3843 22.5647C24.457 23.0353 23.4117 23.2706 22.2487 23.2706ZM22.2487 20.6353C23.1603 20.6353 23.9147 20.3451 24.512 19.7647C25.1092 19.1686 25.4079 18.3216 25.4079 17.2235V16.9882C25.4079 15.8902 25.1092 15.051 24.512 14.4706C23.9304 13.8745 23.176 13.5765 22.2487 13.5765C21.337 13.5765 20.5826 13.8745 19.9854 14.4706C19.3881 15.051 19.0895 15.8902 19.0895 16.9882V17.2235C19.0895 18.3216 19.3881 19.1686 19.9854 19.7647C20.5826 20.3451 21.337 20.6353 22.2487 20.6353ZM36.5408 17.1529V16.7765C36.5408 15.5529 36.7844 14.5098 37.2717 13.6471C37.7589 12.7686 38.4034 12.1019 39.2049 11.6471C40.0222 11.1765 40.9103 10.9412 41.869 10.9412C42.9378 10.9412 43.7472 11.1294 44.2974 11.5059C44.8475 11.8824 45.2483 12.2745 45.4998 12.6824H45.9241V11.2706H48.8476V25.0118C48.8476 25.8118 48.6118 26.4471 48.1403 26.9176C47.6688 27.4039 47.0401 27.6471 46.2542 27.6471H38.4269V25.0588H45.2169C45.6569 25.0588 45.877 24.8235 45.877 24.3529V21.3176H45.4526C45.2954 21.5686 45.0754 21.8275 44.7925 22.0941C44.5096 22.3451 44.1324 22.5569 43.6608 22.7294C43.1893 22.9019 42.592 22.9882 41.869 22.9882C40.9103 22.9882 40.0222 22.7608 39.2049 22.3059C38.4034 21.8353 37.7589 21.1686 37.2717 20.3059C36.7844 19.4275 36.5408 18.3765 36.5408 17.1529ZM42.7178 20.4C43.6294 20.4 44.3917 20.1098 45.0047 19.5294C45.6177 18.949 45.9241 18.1334 45.9241 17.0824V16.8471C45.9241 15.7804 45.6177 14.9647 45.0047 14.4C44.4074 13.8196 43.6451 13.5294 42.7178 13.5294C41.8062 13.5294 41.0439 13.8196 40.4309 14.4C39.8179 14.9647 39.5114 15.7804 39.5114 16.8471V17.0824C39.5114 18.1334 39.8179 18.949 40.4309 19.5294C41.0439 20.1098 41.8062 20.4 42.7178 20.4ZM57.705 23.2706C56.5419 23.2706 55.4967 23.0353 54.5694 22.5647C53.642 22.0941 52.9112 21.4118 52.3768 20.5176C51.8424 19.6235 51.5752 18.549 51.5752 17.2941V16.9176C51.5752 15.6628 51.8424 14.5882 52.3768 13.6941C52.9112 12.8 53.642 12.1176 54.5694 11.6471C55.4967 11.1765 56.5419 10.9412 57.705 10.9412C58.8681 10.9412 59.9135 11.1765 60.8406 11.6471C61.7677 12.1176 62.4986 12.8 63.0332 13.6941C63.5678 14.5882 63.8348 15.6628 63.8348 16.9176V17.2941C63.8348 18.549 63.5678 19.6235 63.0332 20.5176C62.4986 21.4118 61.7677 22.0941 60.8406 22.5647C59.9135 23.0353 58.8681 23.2706 57.705 23.2706ZM57.705 20.6353C58.6166 20.6353 59.3712 20.3451 59.9683 19.7647C60.5654 19.1686 60.8642 18.3216 60.8642 17.2235V16.9882C60.8642 15.8902 60.5654 15.051 59.9683 14.4706C59.3866 13.8745 58.6323 13.5765 57.705 13.5765C56.7934 13.5765 56.039 13.8745 55.4417 14.4706C54.8444 15.051 54.5458 15.8902 54.5458 16.9882V17.2235C54.5458 18.3216 54.8444 19.1686 55.4417 19.7647C56.039 20.3451 56.7934 20.6353 57.705 20.6353ZM72.1407 23.2706C70.9778 23.2706 69.9328 23.0353 69.005 22.5647C68.0779 22.0941 67.347 21.4118 66.8125 20.5176C66.2785 19.6235 66.0109 18.549 66.0109 17.2941V16.9176C66.0109 15.6628 66.2785 14.5882 66.8125 13.6941C67.347 12.8 68.0779 12.1176 69.005 11.6471C69.9328 11.1765 70.9778 10.9412 72.1407 10.9412C73.3041 10.9412 74.3492 11.1765 75.2763 11.6471C76.204 12.1176 76.9349 12.8 77.4689 13.6941C78.0035 14.5882 78.2705 15.6628 78.2705 16.9176V17.2941C78.2705 18.549 78.0035 19.6235 77.4689 20.5176C76.9349 21.4118 76.204 22.0941 75.2763 22.5647C74.3492 23.0353 73.3041 23.2706 72.1407 23.2706ZM72.1407 20.6353C73.0525 20.6353 73.8069 20.3451 74.404 19.7647C75.0016 19.1686 75.2999 18.3216 75.2999 17.2235V16.9882C75.2999 15.8902 75.0016 15.051 74.404 14.4706C73.8228 13.8745 73.0684 13.5765 72.1407 13.5765C71.2294 13.5765 70.475 13.8745 69.8773 14.4706C69.2803 15.051 68.9815 15.8902 68.9815 16.9882V17.2235C68.9815 18.3216 69.2803 19.1686 69.8773 19.7647C70.475 20.3451 71.2294 20.6353 72.1407 20.6353ZM85.7276 23.2706C84.8005 23.2706 83.9281 23.0431 83.1106 22.5882C82.3091 22.1176 81.6648 21.4353 81.1774 20.5412C80.6906 19.6471 80.4465 18.5647 80.4465 17.2941V16.9176C80.4465 15.6471 80.6906 14.5647 81.1774 13.6706C81.6648 12.7765 82.3091 12.1019 83.1106 11.6471C83.9122 11.1765 84.7846 10.9412 85.7276 10.9412C86.4349 10.9412 87.0243 11.0275 87.4958 11.2C87.9833 11.3569 88.3764 11.5608 88.6746 11.8118C88.9734 12.0628 89.2016 12.3294 89.3583 12.6118H89.7827V6.47059H92.7533V22.9412H89.8299V21.5294H89.4055C89.1385 21.9686 88.7218 22.3686 88.1559 22.7294C87.606 23.0902 86.7968 23.2706 85.7276 23.2706ZM86.6235 20.6824C87.5353 20.6824 88.2974 20.3922 88.9104 19.8118C89.5234 19.2157 89.8299 18.3529 89.8299 17.2235V16.9882C89.8299 15.8588 89.5234 15.0039 88.9104 14.4235C88.3133 13.8275 87.5512 13.5294 86.6235 13.5294C85.7123 13.5294 84.9496 13.8275 84.3366 14.4235C83.7236 15.0039 83.4171 15.8588 83.4171 16.9882V17.2235C83.4171 18.3529 83.7236 19.2157 84.3366 19.8118C84.9496 20.3922 85.7123 20.6824 86.6235 20.6824ZM106.513 22.9412C105.743 22.9412 105.114 22.7059 104.627 22.2353C104.155 21.749 103.92 21.1059 103.92 20.3059V13.7176H100.996V11.2706H103.92V7.64706H106.89V11.2706H110.097V13.7176H106.89V19.7882C106.89 20.2588 107.11 20.4941 107.55 20.4941H109.814V22.9412H106.513ZM112.785 22.9412V6.47059H115.756V12.7059H116.18C116.306 12.4549 116.502 12.2039 116.77 11.9529C117.037 11.7019 117.39 11.4981 117.831 11.3412C118.286 11.1686 118.86 11.0824 119.552 11.0824C120.463 11.0824 121.257 11.2941 121.933 11.7176C122.624 12.1255 123.159 12.6981 123.536 13.4353C123.913 14.1569 124.102 15.0039 124.102 15.9765V22.9412H121.131V16.2118C121.131 15.3333 120.911 14.6745 120.471 14.2353C120.047 13.7961 119.434 13.5765 118.632 13.5765C117.72 13.5765 117.013 13.8824 116.51 14.4941C116.007 15.0902 115.756 15.9294 115.756 17.0118V22.9412H112.785ZM127.313 22.9412V11.2706H130.284V22.9412H127.313ZM128.798 9.90588C128.264 9.90588 127.808 9.73335 127.431 9.38823C127.07 9.04312 126.889 8.58823 126.889 8.02353C126.889 7.45882 127.07 7.00394 127.431 6.65882C127.808 6.3137 128.264 6.14117 128.798 6.14117C129.348 6.14117 129.804 6.3137 130.166 6.65882C130.527 7.00394 130.708 7.45882 130.708 8.02353C130.708 8.58823 130.527 9.04312 130.166 9.38823C129.804 9.73335 129.348 9.90588 128.798 9.90588ZM133.575 22.9412V11.2706H136.499V12.8H136.923C137.112 12.3922 137.465 12.0078 137.984 11.6471C138.503 11.2706 139.289 11.0824 140.342 11.0824C141.254 11.0824 142.047 11.2941 142.723 11.7176C143.414 12.1255 143.949 12.6981 144.326 13.4353C144.703 14.1569 144.892 15.0039 144.892 15.9765V22.9412H141.921V16.2118C141.921 15.3333 141.702 14.6745 141.261 14.2353C140.837 13.7961 140.224 13.5765 139.422 13.5765C138.51 13.5765 137.803 13.8824 137.3 14.4941C136.798 15.0902 136.546 15.9294 136.546 17.0118V22.9412H133.575ZM147.538 17.1529V16.7765C147.538 15.5529 147.781 14.5098 148.269 13.6471C148.756 12.7686 149.4 12.1019 150.202 11.6471C151.019 11.1765 151.907 10.9412 152.866 10.9412C153.935 10.9412 154.744 11.1294 155.294 11.5059C155.844 11.8824 156.245 12.2745 156.497 12.6824H156.921V11.2706H159.845V25.0118C159.845 25.8118 159.609 26.4471 159.137 26.9176C158.666 27.4039 158.037 27.6471 157.251 27.6471H149.424V25.0588H156.214C156.654 25.0588 156.874 24.8235 156.874 24.3529V21.3176H156.45C156.292 21.5686 156.072 21.8275 155.789 22.0941C155.507 22.3451 155.129 22.5569 154.658 22.7294C154.186 22.9019 153.589 22.9882 152.866 22.9882C151.907 22.9882 151.019 22.7608 150.202 22.3059C149.4 21.8353 148.756 21.1686 148.269 20.3059C147.781 19.4275 147.538 18.3765 147.538 17.1529ZM153.715 20.4C154.626 20.4 155.389 20.1098 156.002 19.5294C156.615 18.949 156.921 18.1334 156.921 17.0824V16.8471C156.921 15.7804 156.615 14.9647 156.002 14.4C155.404 13.8196 154.642 13.5294 153.715 13.5294C152.803 13.5294 152.041 13.8196 151.428 14.4C150.815 14.9647 150.508 15.7804 150.508 16.8471V17.0824C150.508 18.1334 150.815 18.949 151.428 19.5294C152.041 20.1098 152.803 20.4 153.715 20.4ZM167.994 23.2706C166.47 23.2706 165.221 22.9412 164.246 22.2824C163.271 21.6235 162.682 20.6824 162.477 19.4588L165.212 18.7529C165.322 19.3019 165.503 19.7334 165.755 20.0471C166.022 20.3608 166.344 20.5882 166.721 20.7294C167.114 20.8549 167.539 20.9176 167.994 20.9176C168.686 20.9176 169.197 20.8 169.527 20.5647C169.857 20.3137 170.022 20.0078 170.022 19.6471C170.022 19.2863 169.865 19.0118 169.55 18.8235C169.236 18.6196 168.733 18.4549 168.041 18.3294L167.381 18.2118C166.564 18.0549 165.818 17.8431 165.142 17.5765C164.466 17.2941 163.924 16.9098 163.515 16.4235C163.106 15.9372 162.902 15.3098 162.902 14.5412C162.902 13.3804 163.326 12.4941 164.175 11.8824C165.024 11.2549 166.14 10.9412 167.523 10.9412C168.828 10.9412 169.912 11.2314 170.776 11.8118C171.641 12.3922 172.207 13.1529 172.474 14.0941L169.715 14.9412C169.59 14.3451 169.33 13.9216 168.937 13.6706C168.56 13.4196 168.089 13.2941 167.523 13.2941C166.957 13.2941 166.525 13.3961 166.226 13.6C165.928 13.7882 165.778 14.0549 165.778 14.4C165.778 14.7765 165.935 15.0588 166.25 15.2471C166.564 15.4196 166.989 15.5529 167.523 15.6471L168.183 15.7647C169.063 15.9216 169.857 16.1333 170.564 16.4C171.287 16.651 171.853 17.0196 172.262 17.5059C172.686 17.9765 172.898 18.6196 172.898 19.4353C172.898 20.6588 172.45 21.6078 171.554 22.2824C170.674 22.9412 169.488 23.2706 167.994 23.2706Z" fill="white"/>
<path d="M175.642 9.74116C174.998 9.74116 174.456 9.53722 174.016 9.1294C173.591 8.70587 173.379 8.16469 173.379 7.50587C173.379 6.84705 173.591 6.31369 174.016 5.90587C174.456 5.48233 174.998 5.27057 175.642 5.27057C176.271 5.27057 176.798 5.48233 177.222 5.90587C177.646 6.31369 177.859 6.84705 177.859 7.50587C177.859 8.16469 177.646 8.70587 177.222 9.1294C176.798 9.53722 176.271 9.74116 175.642 9.74116Z" fill="white"/>
</svg>
